<svg xmlns="http://www.w3.org/2000/svg" width="1280" height="720" viewBox="0 0 1280 720">
  <defs>
    <linearGradient id="bg" x1="0" y1="0" x2="1" y2="1">
      <stop offset="0" stop-color="#151327"/>
      <stop offset="0.58" stop-color="#21183f"/>
      <stop offset="1" stop-color="#112737"/>
    </linearGradient>
    <linearGradient id="accent" x1="0" y1="0" x2="1" y2="0">
      <stop offset="0" stop-color="#9b6cff"/>
      <stop offset="1" stop-color="#2edcff"/>
    </linearGradient>
    <marker id="arrow" markerWidth="8" markerHeight="8" refX="6" refY="3" orient="auto">
      <path d="M0,0 L0,6 L7,3 z" fill="#716b92"/>
    </marker>
    <filter id="shadow" x="-20%" y="-20%" width="140%" height="140%">
      <feDropShadow dx="0" dy="12" stdDeviation="18" flood-color="#080713" flood-opacity="0.55"/>
    </filter>
  </defs>

  <rect width="1280" height="720" fill="url(#bg)"/>
  <circle cx="1120" cy="-20" r="260" fill="#8f63ff" opacity="0.08"/>
  <circle cx="120" cy="735" r="280" fill="#26d9ff" opacity="0.05"/>

  <g transform="translate(58 42)">
    <path d="M11 21 L26 5 L41 21 L26 37 Z" fill="none" stroke="url(#accent)" stroke-width="5"/>
    <circle cx="26" cy="21" r="4" fill="#f7f4ff"/>
    <text x="56" y="29" fill="#f8f6ff" font-family="Arial, sans-serif" font-size="25" font-weight="700">StudioOps</text>
    <rect x="1000" y="2" width="164" height="36" rx="18" fill="#1b322d" stroke="#417768"/>
    <circle cx="1023" cy="20" r="5" fill="#64e6a2"/>
    <text x="1037" y="25" fill="#9af2c1" font-family="Arial, sans-serif" font-size="13" font-weight="700">COMMUNITY · LOCAL</text>
  </g>

  <text x="58" y="123" fill="#ffffff" font-family="Arial, sans-serif" font-size="42" font-weight="800">From request to production—without AI slop.</text>
  <text x="58" y="158" fill="#b8b3cb" font-family="Arial, sans-serif" font-size="20">A senior AI engineering workflow with standards, staged review, QA evidence, and a human release gate.</text>

  <g stroke="#716b92" stroke-width="3" fill="none" marker-end="url(#arrow)">
    <line x1="269" y1="345" x2="292" y2="345"/>
    <line x1="507" y1="345" x2="530" y2="345"/>
    <line x1="745" y1="345" x2="768" y2="345"/>
    <line x1="983" y1="345" x2="1006" y2="345"/>
  </g>

  <g filter="url(#shadow)" font-family="Arial, sans-serif">
    <g transform="translate(58 205)">
      <rect width="211" height="280" rx="22" fill="#1b1b2d" stroke="#3a3650"/>
      <rect x="20" y="20" width="50" height="50" rx="14" fill="#34265c"/>
      <text x="45" y="54" fill="#ba9cff" font-size="26" text-anchor="middle" font-weight="800">01</text>
      <text x="20" y="101" fill="#9d96b6" font-size="12" font-weight="700" letter-spacing="1.4">STRUCTURED INTAKE</text>
      <text x="20" y="135" fill="#ffffff" font-size="22" font-weight="800">Make it real</text>
      <text x="20" y="170" fill="#c2bed2" font-size="15">User story</text>
      <text x="20" y="195" fill="#c2bed2" font-size="15">Acceptance criteria</text>
      <text x="20" y="220" fill="#c2bed2" font-size="15">Scope + risk</text>
      <rect x="20" y="244" width="99" height="25" rx="12" fill="#28233f"/>
      <text x="69" y="261" fill="#c8b7ff" font-size="12" text-anchor="middle" font-weight="700">READY</text>
    </g>

    <g transform="translate(296 205)">
      <rect width="211" height="280" rx="22" fill="#1b1b2d" stroke="#3a3650"/>
      <rect x="20" y="20" width="50" height="50" rx="14" fill="#233854"/>
      <text x="45" y="54" fill="#66dcff" font-size="26" text-anchor="middle" font-weight="800">02</text>
      <text x="20" y="101" fill="#9d96b6" font-size="12" font-weight="700" letter-spacing="1.4">AI BUILDERS</text>
      <text x="20" y="135" fill="#ffffff" font-size="22" font-weight="800">Build + validate</text>
      <text x="20" y="170" fill="#c2bed2" font-size="15">Read standards</text>
      <text x="20" y="195" fill="#c2bed2" font-size="15">Run project checks</text>
      <text x="20" y="220" fill="#c2bed2" font-size="15">Open linked PR</text>
      <rect x="20" y="244" width="139" height="25" rx="12" fill="#17343b"/>
      <circle cx="36" cy="256.5" r="4" fill="#4de3c1"/>
      <text x="48" y="261" fill="#85f2dc" font-size="12" font-weight="700">2 RUNNING</text>
    </g>

    <g transform="translate(534 205)">
      <rect width="211" height="280" rx="22" fill="#201c33" stroke="#7251bf" stroke-width="2"/>
      <rect x="20" y="20" width="50" height="50" rx="14" fill="#3d2857"/>
      <text x="45" y="54" fill="#ff8aa5" font-size="26" text-anchor="middle" font-weight="800">03</text>
      <text x="20" y="101" fill="#b7a8df" font-size="12" font-weight="700" letter-spacing="1.4">SPECIALIST REVIEW</text>
      <text x="20" y="135" fill="#ffffff" font-size="22" font-weight="800">Challenge the PR</text>
      <text x="20" y="171" fill="#86e8b1" font-size="14" font-weight="700">✓ Backend approved</text>
      <text x="20" y="197" fill="#ff91a9" font-size="14" font-weight="700">↻ Frontend rejected</text>
      <text x="20" y="223" fill="#c2bed2" font-size="14">Accessibility queued</text>
      <rect x="20" y="244" width="169" height="25" rx="12" fill="#462338"/>
      <text x="104" y="261" fill="#ff9eb3" font-size="12" text-anchor="middle" font-weight="700">CHANGES REQUESTED</text>
    </g>

    <g transform="translate(772 205)">
      <rect width="211" height="280" rx="22" fill="#1b1b2d" stroke="#3a3650"/>
      <rect x="20" y="20" width="50" height="50" rx="14" fill="#263854"/>
      <text x="45" y="54" fill="#6bdcff" font-size="26" text-anchor="middle" font-weight="800">04</text>
      <text x="20" y="101" fill="#9d96b6" font-size="12" font-weight="700" letter-spacing="1.4">QA INTEGRATION</text>
      <text x="20" y="135" fill="#ffffff" font-size="22" font-weight="800">Prove it works</text>
      <text x="20" y="170" fill="#c2bed2" font-size="15">Preview branch</text>
      <text x="20" y="195" fill="#c2bed2" font-size="15">Screenshots + a11y</text>
      <text x="20" y="220" fill="#c2bed2" font-size="15">Tests + evidence</text>
      <rect x="20" y="244" width="109" height="25" rx="12" fill="#2b2e43"/>
      <text x="74" y="261" fill="#c8c5d7" font-size="12" text-anchor="middle" font-weight="700">WAITING</text>
    </g>

    <g transform="translate(1010 205)">
      <rect width="211" height="280" rx="22" fill="#1b1b2d" stroke="#3a3650"/>
      <rect x="20" y="20" width="50" height="50" rx="14" fill="#253e37"/>
      <text x="45" y="54" fill="#75e6aa" font-size="26" text-anchor="middle" font-weight="800">05</text>
      <text x="20" y="101" fill="#9d96b6" font-size="12" font-weight="700" letter-spacing="1.4">HUMAN RELEASE GATE</text>
      <text x="20" y="135" fill="#ffffff" font-size="22" font-weight="800">You ship it</text>
      <text x="20" y="170" fill="#c2bed2" font-size="15">Review evidence</text>
      <text x="20" y="195" fill="#c2bed2" font-size="15">Approve or reject</text>
      <text x="20" y="220" fill="#c2bed2" font-size="15">Merge + deploy</text>
      <rect x="20" y="244" width="143" height="25" rx="12" fill="#1b392f"/>
      <text x="91" y="261" fill="#8aebbb" font-size="12" text-anchor="middle" font-weight="700">NO AUTO-DEPLOY</text>
    </g>
  </g>

  <g transform="translate(58 535)" font-family="Arial, sans-serif">
    <rect width="1163" height="126" rx="22" fill="#151624" stroke="#3a3650"/>
    <text x="24" y="34" fill="#9d96b6" font-size="12" font-weight="700" letter-spacing="1.4">ONE ENGINEERING CONTRACT · EVERY AGENT · EVERY REVIEW</text>
    <g transform="translate(24 53)" font-size="14" font-weight="700">
      <rect width="190" height="45" rx="13" fill="#252139"/><text x="95" y="28" fill="#d6cdf0" text-anchor="middle">Security + privacy</text>
      <rect x="208" width="190" height="45" rx="13" fill="#252139"/><text x="303" y="28" fill="#d6cdf0" text-anchor="middle">Accessibility</text>
      <rect x="416" width="190" height="45" rx="13" fill="#252139"/><text x="511" y="28" fill="#d6cdf0" text-anchor="middle">Performance</text>
      <rect x="624" width="190" height="45" rx="13" fill="#252139"/><text x="719" y="28" fill="#d6cdf0" text-anchor="middle">Testing</text>
      <rect x="832" width="283" height="45" rx="13" fill="#252139"/><text x="973.5" y="28" fill="#d6cdf0" text-anchor="middle">Release + deployment safety</text>
    </g>
  </g>
</svg>
